<svg xmlns="http://www.w3.org/2000/svg" viewBox="0 0 228.65 64.88" id="marcom-logo" data-name="marcom-logo" >
  <defs>
    <style>
      .cls-1 {
        fill: none;
        stroke: #231f20;
        stroke-miterlimit: 10;
        stroke-width: 0.5px;
      }

      .cls-2 {
        fill: #98002e;
      }

      .cls-3 {
        fill: #231f20;
      }

      .cls-4 {
        fill: #a8996e;
      }

      .cls-5 {
        fill: #fff;
      }
    </style>
  </defs>
  <title>Marketing-Communications_Signature</title>
    <g><!-- Text: University of Denver -->
      <!-- University -->
      <path class="cls-3" d="M55.56,15.48c0-2.56,0-3,0-3.55s-.16-.82-.71-.94a3.33,3.33,0,0,0-.56-.05c-.06,0-.13,0-.13-.09s.08-.14.27-.14c.73,0,1.74,0,1.89,0s1.13,0,1.62,0c.19,0,.27,0,.27.14s-.07.09-.13.09a2.63,2.63,0,0,0-.41.05c-.45.07-.58.37-.62.94s0,1,0,3.55v2.3c0,2.37.52,3.39,1.23,4.07a3.2,3.2,0,0,0,2.48.9,3.42,3.42,0,0,0,2.58-1.18,6.38,6.38,0,0,0,1-4V15.48c0-2.56,0-3,0-3.55s-.17-.82-.71-.94a3.43,3.43,0,0,0-.56-.05c-.07,0-.14,0-.14-.09s.09-.14.27-.14c.74,0,1.65,0,1.74,0s.89,0,1.38,0c.19,0,.27,0,.27.14s-.07.09-.13.09a1.49,1.49,0,0,0-.42.05c-.44.09-.57.37-.6.94s0,1,0,3.55v1.77c0,1.77-.19,3.74-1.51,4.91a4.85,4.85,0,0,1-3.39,1.22A5,5,0,0,1,57,22.21c-.82-.77-1.44-1.92-1.44-4.33Z" transform="translate(-5 -4)"/>
      <path class="cls-3" d="M68.28,20.91c0,1.35.19,1.77.64,1.91a3.71,3.71,0,0,0,.82.1c.08,0,.13,0,.13.1s-.1.13-.29.13c-.94,0-1.6,0-1.74,0s-.85,0-1.58,0c-.17,0-.27,0-.27-.13s.05-.1.13-.1a2.46,2.46,0,0,0,.68-.1c.41-.11.49-.59.49-2.09l0-9.43c0-.64,0-.82.18-.82s.41.37.57.53,2.71,2.93,5.24,5.64c1.62,1.75,3.42,3.75,3.94,4.29l-.18-8.35c0-1.07-.13-1.44-.64-1.56a4.17,4.17,0,0,0-.8-.09c-.12,0-.14,0-.14-.11s.14-.12.33-.12c.74,0,1.53,0,1.71,0s.72,0,1.4,0c.18,0,.29,0,.29.12s-.06.11-.18.11a1.46,1.46,0,0,0-.39.05c-.54.12-.61.48-.61,1.47l0,9.64c0,1.08,0,1.16-.15,1.16s-.33-.18-1.2-1.05c-.18-.17-2.55-2.58-4.3-4.46-1.9-2.05-3.76-4.13-4.29-4.72Z" transform="translate(-5 -4)"/>
      <path class="cls-3" d="M82.62,18.38c0,1.58,0,2.88.08,3.57,0,.47.14.83.64.91.23,0,.59.06.74.06s.12,0,.12.1-.07.13-.25.13c-.91,0-2,0-2,0s-1.11,0-1.6,0c-.19,0-.27,0-.27-.13s0-.1.13-.1a3.86,3.86,0,0,0,.49-.06c.33-.08.42-.44.48-.91.09-.69.09-2,.09-3.57v-2.9c0-2.56,0-3,0-3.55s-.2-.84-.56-.92a2.12,2.12,0,0,0-.51-.07c-.06,0-.13,0-.13-.09s.08-.14.26-.14c.55,0,1.58,0,1.66,0s1.12,0,1.62,0c.18,0,.26,0,.26.14s-.07.09-.13.09a2.63,2.63,0,0,0-.41.05c-.45.09-.58.37-.61.94s0,1,0,3.55Z" transform="translate(-5 -4)"/>
      <path class="cls-3" d="M91.27,21.14c1-2.21,3.16-7.94,3.52-9.12a2.4,2.4,0,0,0,.14-.64.39.39,0,0,0-.21-.37,1.91,1.91,0,0,0-.61-.07c-.11,0-.19,0-.19-.09s.1-.14.36-.14c.65,0,1.42,0,1.62,0s.8,0,1.27,0c.18,0,.28,0,.28.12s-.06.11-.19.11a1.46,1.46,0,0,0-.79.2c-.21.15-.46.43-.91,1.55-.17.46-1,2.43-1.83,4.46-1,2.4-1.76,4.17-2.13,5-.46,1-.52,1.25-.69,1.25s-.28-.23-.59-1l-4-10.08c-.36-.91-.61-1.09-1.19-1.26a2.38,2.38,0,0,0-.62-.07c-.1,0-.14,0-.14-.11s.18-.12.44-.12c.78,0,1.72,0,1.92,0s.9,0,1.53,0c.3,0,.44,0,.44.12s0,.11-.16.11a1.85,1.85,0,0,0-.63.09.32.32,0,0,0-.21.33,6.66,6.66,0,0,0,.44,1.36Z" transform="translate(-5 -4)"/>
      <path class="cls-3" d="M99.44,15.48c0-2.56,0-3,0-3.55s-.17-.82-.71-.94a3.33,3.33,0,0,0-.56-.05c-.06,0-.13,0-.13-.09s.09-.14.27-.14c.74,0,1.77,0,1.86,0h4.28a3.89,3.89,0,0,0,.71-.09c.08,0,.15-.08.23-.08s.06.07.06.15-.08.31-.13.77c0,.16-.05.89-.08,1.09s0,.18-.12.18-.13-.08-.13-.21a1.81,1.81,0,0,0-.09-.6c-.12-.26-.29-.46-1.18-.55-.27,0-2.59-.05-2.77-.05s-.1.05-.1.16v4.54c0,.12,0,.16.1.16s2.76,0,3.14,0,.62-.07.77-.23.18-.21.25-.21.08,0,.08.13-.08.37-.13.92c0,.33-.07.94-.07,1.05s0,.31-.1.31a.12.12,0,0,1-.13-.14,1.88,1.88,0,0,0-.06-.55c-.07-.22-.22-.51-.86-.57-.44,0-2.59-.09-2.87-.09a.11.11,0,0,0-.12.12v1.45c0,.55,0,2.46,0,2.82.05,1.13.82,1.34,2.43,1.34a4.48,4.48,0,0,0,1.58-.19c.43-.17.62-.5.75-1.18,0-.18,0-.24.14-.24s.1.13.1.24a14.53,14.53,0,0,1-.22,1.6c-.11.43-.24.43-.88.43-2.49,0-4.11-.1-4.58-.1-.09,0-1.12,0-1.62,0-.18,0-.26,0-.26-.13s0-.1.13-.1a4.53,4.53,0,0,0,.5-.06c.33-.08.41-.44.47-.91.08-.69.08-2,.08-3.57Z" transform="translate(-5 -4)"/>
      <path class="cls-3" d="M107.67,15.48c0-2.56,0-3,0-3.55s-.16-.82-.7-.94a3.43,3.43,0,0,0-.56-.05c-.07,0-.13,0-.13-.09s.07-.14.26-.14c.74,0,1.78,0,1.86,0s1.43,0,1.94,0a5.11,5.11,0,0,1,3,.72,2.9,2.9,0,0,1,1.13,2.24,5.08,5.08,0,0,1-2,3.8c1.35,1.73,2.46,3.2,3.41,4.22a3.5,3.5,0,0,0,2,1.18,3.85,3.85,0,0,0,.64.05c.08,0,.15,0,.15.1s-.1.13-.39.13h-1.17a3.47,3.47,0,0,1-1.76-.31,8.45,8.45,0,0,1-2.22-2.43c-.69-.9-1.46-2-1.8-2.43a.27.27,0,0,0-.21-.1l-2,0c-.08,0-.12,0-.12.13v.4c0,1.58,0,2.88.09,3.57,0,.47.14.83.64.91.23,0,.59.06.73.06s.14,0,.14.1-.08.13-.26.13c-.91,0-1.95,0-2,0s-1.06,0-1.55,0c-.18,0-.27,0-.27-.13s0-.1.13-.1a4.26,4.26,0,0,0,.5-.06c.33-.08.41-.44.47-.91.09-.69.09-2,.09-3.57Zm1.43,1.43a.21.21,0,0,0,.11.2,4.47,4.47,0,0,0,1.73.27,2.16,2.16,0,0,0,1.23-.32,3,3,0,0,0,1-2.53c0-2.06-1.08-3.29-2.84-3.29a4.8,4.8,0,0,0-1.1.1.19.19,0,0,0-.13.2Z" transform="translate(-5 -4)"/>
      <path class="cls-3" d="M117.88,22.93c-.23-.11-.25-.18-.25-.62,0-.82.07-1.48.09-1.75s0-.26.12-.26.12.05.12.19a2.82,2.82,0,0,0,.05.6,2.23,2.23,0,0,0,2.44,1.68,2.19,2.19,0,0,0,2.34-2.19c0-1.14-.47-1.79-1.89-3l-.74-.61c-1.74-1.43-2.14-2.45-2.14-3.57,0-1.76,1.32-3,3.41-3a6.28,6.28,0,0,1,1.53.17,3.1,3.1,0,0,0,.58.08c.13,0,.16,0,.16.12s-.07.62-.07,1.74c0,.26,0,.37-.11.37s-.11-.08-.14-.21a2.42,2.42,0,0,0-.21-.82c-.09-.18-.54-.87-2-.87a1.86,1.86,0,0,0-2,1.9c0,.94.46,1.5,2,2.78l.45.35C123.5,17.62,124,18.64,124,20a3.41,3.41,0,0,1-1.4,2.72,4.31,4.31,0,0,1-2.49.7A5,5,0,0,1,117.88,22.93Z" transform="translate(-5 -4)"/>
      <path class="cls-3" d="M127.15,18.38c0,1.58,0,2.88.09,3.57.05.47.14.83.64.91.23,0,.59.06.74.06s.13,0,.13.1-.08.13-.26.13c-.91,0-1.94,0-2,0s-1.11,0-1.61,0c-.17,0-.26,0-.26-.13s0-.1.13-.1a3.86,3.86,0,0,0,.49-.06c.34-.08.42-.44.48-.91.09-.69.09-2,.09-3.57v-2.9c0-2.56,0-3,0-3.55s-.19-.84-.56-.92a2.11,2.11,0,0,0-.5-.07c-.07,0-.14,0-.14-.09s.09-.14.26-.14c.55,0,1.58,0,1.66,0s1.12,0,1.62,0c.18,0,.26,0,.26.14s-.06.09-.13.09a2.77,2.77,0,0,0-.41.05c-.45.09-.58.37-.61.94s0,1,0,3.55Z" transform="translate(-5 -4)"/>
      <path class="cls-3" d="M134.78,18.38c0,1.58,0,2.88.08,3.57,0,.47.15.83.64.91.23,0,.59.06.74.06s.13,0,.13.1-.08.13-.26.13c-.91,0-1.94,0-2,0s-1.12,0-1.61,0c-.19,0-.27,0-.27-.13s0-.1.13-.1a4.26,4.26,0,0,0,.5-.06c.32-.08.41-.44.47-.91.09-.69.09-2,.09-3.57v-7l-2.44,0c-1,0-1.41.13-1.67.53a2.51,2.51,0,0,0-.29.51c-.05.14-.09.17-.16.17s-.09-.06-.09-.16.33-1.57.37-1.71.1-.31.17-.31a2.67,2.67,0,0,0,.72.2c.47.05,1.1.08,1.3.08h6.16a8.22,8.22,0,0,0,1.63-.16c.09,0,.09.1.09.19,0,.5-.05,1.63-.05,1.81s-.06.22-.12.22-.12-.05-.13-.28v-.18c-.07-.5-.45-.87-2-.91l-2.07,0Z" transform="translate(-5 -4)"/>
      <path class="cls-3" d="M145.19,18.89a3.52,3.52,0,0,0-.38-1.73c-.12-.26-2.32-3.88-2.9-4.74a4.65,4.65,0,0,0-1.11-1.21,1.59,1.59,0,0,0-.71-.27c-.09,0-.17,0-.17-.11s.07-.12.22-.12l1.63,0c.11,0,.74,0,1.37,0,.19,0,.22,0,.22.12s-.1.08-.24.15a.32.32,0,0,0-.22.29,1.32,1.32,0,0,0,.22.64c.26.48,2.72,4.73,3,5.2.32-.69,2.41-4.29,2.74-4.84a1.61,1.61,0,0,0,.28-.84c0-.22-.07-.4-.25-.45s-.26-.09-.26-.17.1-.1.27-.1c.42,0,1,0,1.08,0l1.6,0c.11,0,.21,0,.21.1s-.08.13-.21.13a1.51,1.51,0,0,0-.76.24A3.05,3.05,0,0,0,150,12a52.35,52.35,0,0,0-3.13,5.23,3.85,3.85,0,0,0-.25,1.64V20.3c0,.26,0,1,.05,1.65,0,.47.18.83.67.91.23,0,.6.06.74.06s.13,0,.13.1-.08.13-.26.13c-.91,0-1.94,0-2,0s-1.12,0-1.62,0c-.18,0-.26,0-.26-.13s0-.1.13-.1a4.26,4.26,0,0,0,.5-.06c.33-.08.48-.44.5-.91.06-.69.06-1.39.06-1.65Z" transform="translate(-5 -4)"/>
      <!-- of -->
      <path class="cls-3" d="M156.68,17.25a3.35,3.35,0,0,1-.42,1.59,3.25,3.25,0,0,1-1.19,1.25,2.89,2.89,0,0,1-1.47.46,1.59,1.59,0,0,1-1.66-1.68,3,3,0,0,1,.45-1.58A3.3,3.3,0,0,1,153.6,16a2.73,2.73,0,0,1,1.46-.47,1.54,1.54,0,0,1,1.16.47A1.63,1.63,0,0,1,156.68,17.25Zm-.88-.37a1.09,1.09,0,0,0-.25-.76.8.8,0,0,0-.62-.27c-.53,0-1,.38-1.46,1.13a4.39,4.39,0,0,0-.65,2.24,1.09,1.09,0,0,0,.25.78.83.83,0,0,0,.65.28c.5,0,1-.37,1.42-1.12A4.46,4.46,0,0,0,155.8,16.88Z" transform="translate(-5 -4)"/>
      <path class="cls-3" d="M160,15.7l-.1.36h-.77l-.59,2.33a13.4,13.4,0,0,1-.79,2.4,4.19,4.19,0,0,1-1.21,1.65,1.7,1.7,0,0,1-1,.35.81.81,0,0,1-.55-.2.43.43,0,0,1-.16-.35A.37.37,0,0,1,155,22a.44.44,0,0,1,.33-.13.35.35,0,0,1,.25.09.32.32,0,0,1,.1.21.28.28,0,0,1-.12.22.19.19,0,0,0-.07.12s0,.05,0,.07.08,0,.15,0a1,1,0,0,0,.49-.14,1.38,1.38,0,0,0,.44-.43,2.81,2.81,0,0,0,.38-.83c.05-.14.18-.64.4-1.48l.93-3.62h-.93l.07-.36a2.26,2.26,0,0,0,.63-.06.77.77,0,0,0,.32-.23,3.58,3.58,0,0,0,.39-.65,5.23,5.23,0,0,1,.6-1,2.88,2.88,0,0,1,.83-.72,1.68,1.68,0,0,1,.82-.23,1,1,0,0,1,.66.2.6.6,0,0,1,.24.45.46.46,0,0,1-.12.31.42.42,0,0,1-.32.14.37.37,0,0,1-.27-.11.27.27,0,0,1-.1-.22.46.46,0,0,1,.07-.22.42.42,0,0,0,.07-.16.17.17,0,0,0-.05-.12A.36.36,0,0,0,161,13a.89.89,0,0,0-.6.22,2.33,2.33,0,0,0-.64.88c-.1.22-.27.74-.53,1.57Z" transform="translate(-5 -4)"/>
      <!--  Denver -->
      <path class="cls-3" d="M55.56,33.24c0-4.24,0-5-.05-5.87s-.27-1.36-1.17-1.56a5.64,5.64,0,0,0-.93-.08c-.1,0-.22-.05-.22-.16s.15-.21.44-.21c1.22,0,2.94.08,3.07.08.33,0,2-.08,3.67-.08,2.69,0,7.67-.25,10.9,3.1a9.68,9.68,0,0,1,2.64,6.9A11.11,11.11,0,0,1,71,43c-1.16,1.22-3.61,3.13-8.23,3.13-2.34,0-5.77-.33-6-.33s-1.85.08-2.66.08c-.3,0-.44,0-.44-.21s0-.17.22-.17a3.85,3.85,0,0,0,.82-.11c.54-.1.68-.7.78-1.49.14-1.14.14-3.29.14-5.9Zm2.29,2.93c0,2.89,0,5.38,0,5.9a5.81,5.81,0,0,0,.3,2.07c.35.51,1.41,1.08,4.62,1.08a9.14,9.14,0,0,0,6.47-2.52c1.41-1.39,2.17-4,2.17-6.5a9.71,9.71,0,0,0-2.61-6.85C66.3,26.66,63.2,26.28,60,26.28a7.11,7.11,0,0,0-1.76.19.49.49,0,0,0-.33.54c0,.93,0,3.7,0,5.79Z" transform="translate(-5 -4)"/>
      <path class="cls-3" d="M75.93,33.24c0-4.24,0-5-.06-5.87S75.6,26,74.7,25.81a5.43,5.43,0,0,0-.92-.08c-.11,0-.21-.05-.21-.16s.13-.21.43-.21c1.22,0,2.93.08,3.07.08s6.45,0,7.07,0a7.13,7.13,0,0,0,1.18-.14c.13,0,.23-.13.37-.13s.11.11.11.24-.14.52-.22,1.28c0,.27-.08,1.47-.13,1.8,0,.13-.08.29-.2.29S85,28.62,85,28.4a2.87,2.87,0,0,0-.17-1c-.18-.44-.46-.76-1.92-.93-.46,0-4.28-.08-4.57-.08-.12,0-.17.08-.17.28v7.5c0,.19,0,.27.17.27.34,0,4.54,0,5.16-.05s1-.11,1.28-.39.3-.35.41-.35.14,0,.14.22-.14.62-.22,1.52C85.09,36,85,37,85,37.15s0,.52-.19.52-.19-.11-.19-.25a2.7,2.7,0,0,0-.11-.89c-.11-.39-.36-.84-1.41-1-.74-.08-4.27-.13-4.74-.13a.17.17,0,0,0-.19.19V38c0,.92,0,4.08,0,4.64.08,1.89,1.34,2.24,4,2.24a7.72,7.72,0,0,0,2.6-.3c.71-.3,1-.85,1.23-2,0-.3.1-.41.24-.41s.16.22.16.41a25.23,25.23,0,0,1-.35,2.64c-.19.7-.41.7-1.47.7-4.1,0-6.77-.16-7.56-.16-.14,0-1.85.08-2.66.08-.31,0-.44,0-.44-.21s0-.17.22-.17a3.76,3.76,0,0,0,.81-.11c.54-.1.68-.7.79-1.49.14-1.14.14-3.29.14-5.9Z" transform="translate(-5 -4)"/>
      <path class="cls-3" d="M90.59,42.21c.06,2.22.32,2.93,1.06,3.15a6.34,6.34,0,0,0,1.36.16c.13,0,.22,0,.22.17s-.17.21-.49.21c-1.55,0-2.64-.08-2.89-.08s-1.38.08-2.6.08c-.28,0-.43,0-.43-.21s.07-.17.21-.17a4.07,4.07,0,0,0,1.11-.16c.68-.19.82-1,.82-3.46l0-15.57c0-1.06.08-1.36.29-1.36s.69.6,1,.88c.42.46,4.47,4.83,8.66,9.32,2.68,2.88,5.64,6.2,6.51,7.09l-.3-13.8c0-1.77-.21-2.37-1-2.59a7.35,7.35,0,0,0-1.34-.14c-.19,0-.21-.07-.21-.18s.21-.19.54-.19c1.22,0,2.53.08,2.82.08s1.2-.08,2.31-.08c.3,0,.5,0,.5.19s-.11.18-.3.18a2.42,2.42,0,0,0-.65.08c-.9.2-1,.8-1,2.43l-.06,15.92c0,1.8-.05,1.93-.24,1.93s-.54-.3-2-1.74c-.29-.27-4.21-4.26-7.09-7.36-3.15-3.4-6.22-6.82-7.1-7.8Z" transform="translate(-5 -4)"/>
      <path class="cls-3" d="M120.79,42.59c1.58-3.65,5.23-13.13,5.82-15.09a4.08,4.08,0,0,0,.24-1,.66.66,0,0,0-.35-.63,3.35,3.35,0,0,0-1-.11c-.16,0-.29,0-.29-.16s.15-.21.59-.21c1.08,0,2.33.08,2.66.08.16,0,1.33-.08,2.12-.08.3,0,.46.05.46.19s-.11.18-.32.18a2.42,2.42,0,0,0-1.3.33c-.36.25-.77.71-1.5,2.56-.3.76-1.66,4-3,7.36-1.65,4-2.88,6.91-3.5,8.24-.76,1.63-.87,2.06-1.15,2.06s-.45-.38-1-1.68l-6.66-16.66c-.6-1.53-1-1.82-2-2.1a4.18,4.18,0,0,0-1-.11c-.16,0-.22-.07-.22-.18s.28-.19.7-.19c1.31,0,2.86.08,3.19.08s1.5-.08,2.53-.08c.49,0,.73.05.73.19s-.08.18-.27.18a3.1,3.1,0,0,0-1,.14.56.56,0,0,0-.36.54,10.32,10.32,0,0,0,.74,2.26Z" transform="translate(-5 -4)"/>
      <path class="cls-3" d="M134.4,33.24c0-4.24,0-5-.05-5.87s-.27-1.36-1.17-1.56a5.52,5.52,0,0,0-.92-.08c-.11,0-.22-.05-.22-.16s.14-.21.44-.21c1.22,0,2.93.08,3.07.08s6.44,0,7.07,0a6.84,6.84,0,0,0,1.17-.14c.13,0,.24-.13.38-.13s.11.11.11.24-.14.52-.22,1.28c0,.27-.08,1.47-.14,1.8,0,.13-.08.29-.19.29s-.22-.13-.22-.35a3,3,0,0,0-.15-1c-.2-.44-.47-.76-1.94-.93-.45,0-4.27-.08-4.57-.08-.11,0-.16.08-.16.28v7.5c0,.19,0,.27.16.27.35,0,4.55,0,5.18-.05s1-.11,1.27-.39.3-.35.4-.35.14,0,.14.22-.14.62-.22,1.52c-.05.54-.11,1.55-.11,1.74s0,.52-.19.52-.18-.11-.18-.25a2.7,2.7,0,0,0-.11-.89c-.11-.39-.36-.84-1.42-1-.73-.08-4.27-.13-4.73-.13a.17.17,0,0,0-.19.19V38c0,.92,0,4.08,0,4.64.07,1.89,1.34,2.24,4,2.24a7.77,7.77,0,0,0,2.61-.3c.7-.3,1-.85,1.22-2,0-.3.11-.41.25-.41s.16.22.16.41a25.63,25.63,0,0,1-.36,2.64c-.18.7-.4.7-1.47.7-4.09,0-6.76-.16-7.55-.16-.14,0-1.85.08-2.67.08-.29,0-.43,0-.43-.21s.05-.17.22-.17a3.76,3.76,0,0,0,.81-.11c.54-.1.68-.7.79-1.49.13-1.14.13-3.29.13-5.9Z" transform="translate(-5 -4)"/>
      <path class="cls-3" d="M147.75,33.24c0-4.24,0-5-.06-5.87s-.26-1.36-1.17-1.56a5.34,5.34,0,0,0-.92-.08c-.1,0-.21-.05-.21-.16s.13-.21.43-.21c1.22,0,2.94.08,3.07.08.3,0,2.36-.08,3.21-.08a8.41,8.41,0,0,1,5,1.19,4.78,4.78,0,0,1,1.87,3.7c0,2-.85,4-3.29,6.28,2.23,2.85,4.07,5.26,5.65,6.95a5.66,5.66,0,0,0,3.31,2,6.72,6.72,0,0,0,1.07.08c.13,0,.24.08.24.17s-.16.21-.65.21h-1.93a5.39,5.39,0,0,1-2.9-.52c-1.18-.62-2.12-2-3.68-4-1.13-1.49-2.41-3.32-3-4a.43.43,0,0,0-.35-.16l-3.34-.06c-.14,0-.2.08-.2.22V38c0,2.61,0,4.76.14,5.9.08.79.24,1.39,1.06,1.49a10.53,10.53,0,0,0,1.22.11c.17,0,.22.08.22.17s-.14.21-.43.21c-1.5,0-3.22-.08-3.35-.08s-1.74.08-2.55.08c-.3,0-.44,0-.44-.21s.06-.17.22-.17a3.93,3.93,0,0,0,.82-.11c.53-.1.67-.7.78-1.49.14-1.14.14-3.29.14-5.9Zm2.17,2.36a.36.36,0,0,0,.2.33,7.54,7.54,0,0,0,2.85.43,3.57,3.57,0,0,0,2-.51c1-.66,1.65-2.13,1.65-4.19,0-3.4-1.79-5.43-4.7-5.43a8.37,8.37,0,0,0-1.82.16.32.32,0,0,0-.22.33Z" transform="translate(-5 -4)"/>
    </g>
    <!-- horizontal line -->
    <line class="cls-1" x1="43.74" y1="49.21" x2="228.65" y2="49.21"/>
    <g><!-- Text:  Marketing and Communications -->
      <!-- marketing -->
      <path class="cls-2" d="M56.91,63.1l-1,5.47H55l1.63-8.36,2.81,6.65,2.81-6.65,1.63,8.36h-.93l-1-5.47-2.49,5.78Z" transform="translate(-5 -4)"/>
      <path class="cls-2" d="M71.63,68.57h-1l-1-2.46H66.41l-1,2.46h-1L68,60.21Zm-4.94-3.28h2.57l-1.28-3Z" transform="translate(-5 -4)"/>
      <path class="cls-2" d="M72.45,60.53h1.89a2.82,2.82,0,0,1,1.84.4,2.23,2.23,0,0,1,.76,1.79c0,1.32-.76,2-2.17,2H74.6l3.07,3.84H76.45l-2.93-3.84h-.14v3.84h-.93Zm.93,3.5h.73c1.26,0,1.88-.18,1.88-1.3s-.61-1.39-1.88-1.39h-.73Z" transform="translate(-5 -4)"/>
      <path class="cls-2" d="M78.46,60.53h1V64.1l3.37-3.57h1.15l-3.45,3.62,3.79,4.42H83l-3.62-4.33v4.33h-1Z" transform="translate(-5 -4)"/>
      <path class="cls-2" d="M85.09,60.53h4.24v.88H86.05v2.3h3.28v.89H86.05v3.08h3.28v.89H85.09Z" transform="translate(-5 -4)"/>
      <path class="cls-2" d="M92.38,61.44H90.11v-.91h5.5v.91H93.34v7.13h-1Z" transform="translate(-5 -4)"/>
      <path class="cls-2" d="M96.54,60.53h1v8h-1Z" transform="translate(-5 -4)"/>
      <path class="cls-2" d="M99.33,60.21l5.88,6.42v-6.1h.91v8.35l-5.88-6.35v6h-.91Z" transform="translate(-5 -4)"/>
      <path class="cls-2" d="M115.68,64.42v.27a3.75,3.75,0,0,1-4,4.09,4.29,4.29,0,0,1-2-.47,4,4,0,0,1-2.07-3.68,4.24,4.24,0,0,1,1.3-3.24,4,4,0,0,1,2.85-1A3.8,3.8,0,0,1,115.14,62l-.8.64a2.83,2.83,0,0,0-2.59-1.47,3.13,3.13,0,0,0-3.14,3.42,3.09,3.09,0,0,0,3.14,3.29,2.79,2.79,0,0,0,2.91-2.65h-2.3v-.85Z" transform="translate(-5 -4)"/>
      <!-- & -->
      <path class="cls-2" d="M124.3,67.63a3.29,3.29,0,0,1-2.44,1.08,2.22,2.22,0,0,1-2.39-2.27c0-1,.62-1.77,1.85-2.47L121,63.6a2,2,0,0,1-.52-1.34,1.7,1.7,0,0,1,1.85-1.69,1.65,1.65,0,0,1,1.82,1.69c0,.81-.47,1.42-1.46,2l1.75,2.12a12.21,12.21,0,0,0,1-1.25l.58.64A7.32,7.32,0,0,1,125,67l1.28,1.54h-1.16Zm-2.48-3-.23.16c-.72.5-1.16.92-1.16,1.62a1.44,1.44,0,0,0,1.47,1.48,2.79,2.79,0,0,0,1.87-.91Zm.69-1.19a1.34,1.34,0,0,0,.75-1.16.87.87,0,0,0-.94-.91.9.9,0,0,0-.94.93,1.12,1.12,0,0,0,.29.76l.49.58Z" transform="translate(-5 -4)"/>
      <!-- communications -->
      <path class="cls-2" d="M134.21,61.22a3.26,3.26,0,0,0-2.29,1,3.3,3.3,0,0,0-.93,2.38,3.23,3.23,0,0,0,.55,1.9,3.29,3.29,0,0,0,2.71,1.43,3.35,3.35,0,0,0,2.64-1.28v1.28a4.65,4.65,0,0,1-2.71.87A4.19,4.19,0,0,1,131.8,68a4.27,4.27,0,0,1-.55-6.52,4.13,4.13,0,0,1,3-1.18,4.57,4.57,0,0,1,2.65.86v1.25A3.47,3.47,0,0,0,134.21,61.22Z" transform="translate(-5 -4)"/>
      <path class="cls-2" d="M145.16,67.54a4.35,4.35,0,0,1-6.08,0,4.06,4.06,0,0,1-1.26-3,4.12,4.12,0,0,1,1.26-3,4.4,4.4,0,0,1,6.08,0,4.19,4.19,0,0,1,0,6Zm-.72-.64a3.23,3.23,0,0,0,1-2.34,3.31,3.31,0,0,0-1-2.36,3.3,3.3,0,0,0-4.65,0,3.35,3.35,0,0,0-1,2.36,3.27,3.27,0,0,0,1,2.34,3.25,3.25,0,0,0,4.65,0Z" transform="translate(-5 -4)"/>
      <path class="cls-2" d="M149,63.1l-1,5.47h-.93l1.63-8.36,2.81,6.65,2.81-6.65L156,68.57H155l-1-5.47-2.49,5.78Z" transform="translate(-5 -4)"/>
      <path class="cls-2" d="M158.59,63.1l-1,5.47h-.94l1.63-8.36,2.81,6.65,2.82-6.65,1.63,8.36h-.94l-1-5.47-2.49,5.78Z" transform="translate(-5 -4)"/>
      <path class="cls-2" d="M167.57,60.53v5c0,1.61.65,2.36,2.15,2.36s2.15-.75,2.15-2.36v-5h1v5c0,2.17-1,3.25-3.11,3.25s-3.12-1.08-3.12-3.25v-5Z" transform="translate(-5 -4)"/>
      <path class="cls-2" d="M174.64,60.21l5.88,6.42v-6.1h.91v8.35l-5.88-6.35v6h-.91Z" transform="translate(-5 -4)"/>
      <path class="cls-2" d="M183.28,60.53h.95v8h-.95Z" transform="translate(-5 -4)"/>
      <path class="cls-2" d="M189.89,61.22a3.25,3.25,0,0,0-3.22,3.36,3.23,3.23,0,0,0,.55,1.9,3.27,3.27,0,0,0,2.71,1.43,3.35,3.35,0,0,0,2.63-1.28v1.28a4.63,4.63,0,0,1-2.71.87,4.18,4.18,0,0,1-2.37-.74,4.27,4.27,0,0,1-.55-6.52,4.13,4.13,0,0,1,3-1.18,4.52,4.52,0,0,1,2.64.86v1.25A3.45,3.45,0,0,0,189.89,61.22Z" transform="translate(-5 -4)"/>
      <path class="cls-2" d="M200.43,68.57h-1l-1.05-2.46h-3.13l-1.05,2.46h-1l3.64-8.36Zm-4.93-3.28h2.56l-1.28-3Z" transform="translate(-5 -4)"/>
      <path class="cls-2" d="M202,61.44h-2.27v-.91h5.5v.91h-2.26v7.13h-1Z" transform="translate(-5 -4)"/>
      <path class="cls-2" d="M206.12,60.53h1v8h-1Z" transform="translate(-5 -4)"/>
      <path class="cls-2" d="M215.84,67.54a4.35,4.35,0,0,1-6.08,0,4.06,4.06,0,0,1-1.26-3,4.12,4.12,0,0,1,1.26-3,4.4,4.4,0,0,1,6.08,0,4.19,4.19,0,0,1,0,6Zm-.72-.64a3.23,3.23,0,0,0,1-2.34,3.31,3.31,0,0,0-1-2.36,3.23,3.23,0,0,0-2.33-1,3.19,3.19,0,0,0-2.32,1,3.35,3.35,0,0,0-1,2.36,3.27,3.27,0,0,0,1,2.34,3.25,3.25,0,0,0,4.65,0Z" transform="translate(-5 -4)"/>
      <path class="cls-2" d="M218.53,60.21l5.88,6.42v-6.1h.91v8.35l-5.88-6.35v6h-.91Z" transform="translate(-5 -4)"/>
      <path class="cls-2" d="M231.67,66.31a2.38,2.38,0,0,1-2.58,2.46,2.35,2.35,0,0,1-2.46-1.87l.86-.42c.24,1,.79,1.48,1.6,1.48a1.48,1.48,0,0,0,1.61-1.49,1.74,1.74,0,0,0-1.25-1.61l-1-.42a2.21,2.21,0,0,1-1.58-2.12,2.06,2.06,0,0,1,2.26-2,2.16,2.16,0,0,1,2.08,1.21l-.79.51a1.55,1.55,0,0,0-1.36-.93,1.16,1.16,0,0,0-1.23,1.17c0,.58.35,1,1.08,1.3l1.15.5A2.3,2.3,0,0,1,231.67,66.31Z" transform="translate(-5 -4)"/>
    </g>
    
    <g><!-- Shield -->
      <!-- shield shape -->
      <path class="cls-2" d="M41,6.22a69.74,69.74,0,0,0-34.52-.1L5,6.49V22.31A33.43,33.43,0,0,0,8.25,36.67C11.14,42.62,16,47.56,22.79,51.35l1,.53,1-.53c6.76-3.79,11.65-8.73,14.54-14.69A33.35,33.35,0,0,0,42.5,22.31V6.6Z" transform="translate(-5 -4)"/>
      <!-- 1864 -->
      <path class="cls-4" d="M12.48,10.44l1.23-.52h.1l-1.1,3.71a2.83,2.83,0,0,0-.11.47.19.19,0,0,0,.09.14,1,1,0,0,0,.38,0l0,.12H11.38l0-.12a1.31,1.31,0,0,0,.42,0,.51.51,0,0,0,.16-.13,1.73,1.73,0,0,0,.17-.48l.71-2.37a3.73,3.73,0,0,0,.15-.62.21.21,0,0,0,0-.15.17.17,0,0,0-.13-.05,1.24,1.24,0,0,0-.36.1Z" transform="translate(-5 -4)"/>
      <path class="cls-4" d="M14.85,12.2a2.13,2.13,0,0,1-.47-.69.9.9,0,0,1,0-.54,1.4,1.4,0,0,1,.55-.74,1.56,1.56,0,0,1,1-.31,1,1,0,0,1,.77.29.68.68,0,0,1,.13.66,1.27,1.27,0,0,1-.33.5,3.7,3.7,0,0,1-.91.6,2.86,2.86,0,0,1,.56.7.94.94,0,0,1,0,.7,1.44,1.44,0,0,1-.59.79,1.66,1.66,0,0,1-1,.33.91.91,0,0,1-.86-.39.87.87,0,0,1-.08-.69,1.57,1.57,0,0,1,.37-.58A4.47,4.47,0,0,1,14.85,12.2Zm.11.12a2.34,2.34,0,0,0-.54.49,1.91,1.91,0,0,0-.31.58.79.79,0,0,0,0,.67.53.53,0,0,0,.5.25,1.07,1.07,0,0,0,.63-.19,1,1,0,0,0,.35-.49.71.71,0,0,0,0-.41A3.08,3.08,0,0,0,15,12.32Zm.5-.47a3.64,3.64,0,0,0,.66-.56,1.34,1.34,0,0,0,.24-.46.63.63,0,0,0,0-.53.53.53,0,0,0-.47-.19,1,1,0,0,0-.6.19,1,1,0,0,0-.34.45.65.65,0,0,0,0,.34.77.77,0,0,0,.15.32Z" transform="translate(-5 -4)"/>
      <path class="cls-4" d="M20.68,9.92l0,.12a2.52,2.52,0,0,0-.75.17,2.66,2.66,0,0,0-.65.39,3.86,3.86,0,0,0-.62.59,5.28,5.28,0,0,0-.51.76,2.14,2.14,0,0,1,1-.32.72.72,0,0,1,.67.37,1.12,1.12,0,0,1,.06.93,2.38,2.38,0,0,1-.63,1,1.73,1.73,0,0,1-1.23.55.79.79,0,0,1-.68-.3,1.62,1.62,0,0,1-.17-1.51,3.6,3.6,0,0,1,.57-1.12,4.29,4.29,0,0,1,1-.94,3.69,3.69,0,0,1,1-.56,2.81,2.81,0,0,1,.8-.14ZM18,12.19c-.12.29-.21.53-.27.71a2.12,2.12,0,0,0-.08.68.9.9,0,0,0,.17.57.41.41,0,0,0,.35.16.92.92,0,0,0,.59-.27,1.62,1.62,0,0,0,.45-.76,1.8,1.8,0,0,0,.06-1,.48.48,0,0,0-.51-.4.79.79,0,0,0-.28.05A3.93,3.93,0,0,0,18,12.19Z" transform="translate(-5 -4)"/>
      <path class="cls-4" d="M23.4,12.79l-.14.46h-.59l-.34,1.16h-.54l.35-1.16H20.27l.13-.42,2.91-2.91h.35l-.85,2.87Zm-1.12,0,.64-2.18-2.19,2.18Z" transform="translate(-5 -4)"/>
      <!-- end 1864 -->
      <!-- mountain -->
      <path class="cls-5" d="M14.93,24.66s2.3-1.19,4.3-2.26a7.69,7.69,0,0,1,7-.08l-.89-1.42,4.11,1.87.15-1.11L23.87,18.8,13.49,24.43Z" transform="translate(-5 -4)"/>
      <!-- white building, windows and outer hills -->
      <path class="cls-5" d="M7,8V22.29A31.2,31.2,0,0,0,10,35.81c3.42,7,9.14,11.24,13.73,13.81,4.59-2.57,10.31-6.77,13.73-13.81a31.34,31.34,0,0,0,3.05-13.52V8.13A67.86,67.86,0,0,0,7,8Zm15,37-.76.2V34.56a.39.39,0,0,1,.38-.41.4.4,0,0,1,.38.41Zm1.8-.48-.76.2V34.56a.38.38,0,1,1,.76,0Zm5.73-16.21a3,3,0,0,0-.57.18V25.81a3.25,3.25,0,0,1,.56-.24Zm1-.15-.57.07V25.46a4.32,4.32,0,0,1,.56-.1Zm.74,0h-.31V25.33h.61v2.86Zm.73,0V25.36c.2,0,.38.06.56.09v2.83Zm1,.15V25.57a2.94,2.94,0,0,1,.56.24v2.73A2.84,2.84,0,0,0,33,28.36Zm6.67-6a31.63,31.63,0,0,1-.28,4l-4.74-2.28.15.83,4.52,1.94a29.5,29.5,0,0,1-2.21,7.8c-.8.11-1.58.24-2.34.38h0l0-4.65h0A2.29,2.29,0,0,0,34,28.78v-3l.13-.19v-.12a4.79,4.79,0,0,0-2.84-.82h0v.13h0v0h0V24.7h0a4.74,4.74,0,0,0-2.86.85v.09l.14.19v.48h0v2.48a2.29,2.29,0,0,0-.72,1.62v0l0,6.35h0l-1.32.41v-6H25.19V29.82H20v1.34h-1.1v9.05l-1.16.58V39.42L16,34.53l-1.81,4.89v1.39a27.45,27.45,0,0,1-3.43-5.41A29.48,29.48,0,0,1,8.23,27,11.45,11.45,0,0,1,14,25.45a26.49,26.49,0,0,1,8.46,1.88,65.84,65.84,0,0,0-10.32-3.76l-4,2.48a33,33,0,0,1-.23-3.67V8.62a63.28,63.28,0,0,1,31.79.1Z" transform="translate(-5 -4)"/>
      <!-- gold roof -->
      <path class="cls-4" d="M34.1,25.51,31.25,9.42l-2.87,16.1h0a4.8,4.8,0,0,1,2.85-.84h0A4.79,4.79,0,0,1,34.1,25.51Z" transform="translate(-5 -4)"/>
    </g>
</svg>