<svg id="di-shield" data-name="shield-logo" xmlns="http://www.w3.org/2000/svg" viewBox="0 0 37.5 47.88">

	<defs><style>.cls-1{fill:#8a2432;}.cls-2{fill:#8a6e4b;}.cls-3{fill:#fff;}</style></defs

	><title>shield</title>

	<path class="cls-1" d="M36,2.22A70.86,70.86,0,0,0,18.54,0a70.4,70.4,0,0,0-17,2.12L0,2.49V18.31A33.43,33.43,0,0,0,3.25,32.67C6.14,38.62,11,43.56,17.79,47.35l1,.53,1-.53c6.76-3.79,11.65-8.73,14.54-14.69A33.35,33.35,0,0,0,37.5,18.31V2.6Z"/>

	<!-- Number 1 -->
	<path class="cls-2" d="M7.48,6.44l1.23-.52h.1L7.71,9.63a2.83,2.83,0,0,0-.11.47.19.19,0,0,0,.09.14,1,1,0,0,0,.38,0l0,.12H6.38l0-.12a1.31,1.31,0,0,0,.42,0A.51.51,0,0,0,7,10.11a1.73,1.73,0,0,0,.17-.48l.71-2.37A3.73,3.73,0,0,0,8,6.64a.21.21,0,0,0,0-.15.17.17,0,0,0-.13,0,1.24,1.24,0,0,0-.36.1Z"/>
	<!-- Number 8 -->
	<path class="cls-2" d="M9.85,8.2a2.13,2.13,0,0,1-.47-.69.9.9,0,0,1,0-.54,1.4,1.4,0,0,1,.55-.74,1.56,1.56,0,0,1,1-.31,1,1,0,0,1,.77.29.68.68,0,0,1,.13.66,1.27,1.27,0,0,1-.33.5,3.7,3.7,0,0,1-.91.6,2.86,2.86,0,0,1,.56.7.94.94,0,0,1,0,.7,1.44,1.44,0,0,1-.59.79,1.66,1.66,0,0,1-1,.33.91.91,0,0,1-.86-.39.87.87,0,0,1-.08-.69A1.57,1.57,0,0,1,9,8.83,4.47,4.47,0,0,1,9.85,8.2Zm.11.12a2.34,2.34,0,0,0-.54.49,1.91,1.91,0,0,0-.31.58.79.79,0,0,0,0,.67.53.53,0,0,0,.5.25,1.07,1.07,0,0,0,.63-.19,1,1,0,0,0,.35-.49.71.71,0,0,0,0-.41A3.08,3.08,0,0,0,10,8.32Zm.5-.47a3.64,3.64,0,0,0,.66-.56,1.34,1.34,0,0,0,.24-.46.63.63,0,0,0,0-.53.53.53,0,0,0-.47-.19,1,1,0,0,0-.6.19,1,1,0,0,0-.34.45.65.65,0,0,0,0,.34.77.77,0,0,0,.15.32Z"/>
	<!-- Number 6 -->
	<path class="cls-2" d="M15.68,5.92l0,.12a2.52,2.52,0,0,0-.75.17,2.66,2.66,0,0,0-.65.39,3.86,3.86,0,0,0-.62.59,5.28,5.28,0,0,0-.51.76,2.14,2.14,0,0,1,1-.32.72.72,0,0,1,.67.37,1.12,1.12,0,0,1,.06.93,2.38,2.38,0,0,1-.63,1,1.73,1.73,0,0,1-1.23.55.79.79,0,0,1-.68-.3,1.62,1.62,0,0,1-.17-1.51,3.6,3.6,0,0,1,.57-1.12,4.29,4.29,0,0,1,1-.94,3.69,3.69,0,0,1,1-.56,2.81,2.81,0,0,1,.8-.14ZM13,8.19c-.12.29-.21.53-.27.71a2.12,2.12,0,0,0-.08.68.9.9,0,0,0,.17.57.41.41,0,0,0,.35.16.92.92,0,0,0,.59-.27,1.62,1.62,0,0,0,.45-.76,1.8,1.8,0,0,0,.06-1,.48.48,0,0,0-.51-.4.79.79,0,0,0-.28,0A3.93,3.93,0,0,0,13,8.19Z"/>
	<!-- Number 4 -->
	<path class="cls-2" d="M18.4,8.79l-.14.46h-.59l-.34,1.16h-.54l.35-1.16H15.27l.13-.42,2.91-2.91h.35l-.85,2.87Zm-1.12,0,.64-2.18L15.73,8.79Z"/>

	<!-- Middle Mountain -->
	<path class="cls-3" d="M9.93,20.66s2.3-1.19,4.3-2.26a7.69,7.69,0,0,1,7-.08l-.89-1.42,4.11,1.87.15-1.11L18.87,14.8,8.49,20.43Z"/>

	<path class="cls-3" d="M2,4V18.29A31.2,31.2,0,0,0,5,31.81c3.42,7,9.14,11.24,13.73,13.81,4.59-2.57,10.31-6.77,13.73-13.81a31.34,31.34,0,0,0,3.05-13.52V4.13A67.86,67.86,0,0,0,2,4Zm15,37-.76.2V30.56a.39.39,0,0,1,.38-.41.4.4,0,0,1,.38.41Zm1.8-.48-.76.2V30.56a.38.38,0,1,1,.76,0Zm5.73-16.21a3,3,0,0,0-.57.18V21.81a3.25,3.25,0,0,1,.56-.24Zm1-.15-.57.07V21.46a4.32,4.32,0,0,1,.56-.1Zm.74,0h-.31V21.33h.61v2.86Zm.73,0V21.36c.2,0,.38.06.56.09v2.83Zm1,.15V21.57a2.94,2.94,0,0,1,.56.24v2.73A2.84,2.84,0,0,0,28,24.36Zm6.67-6a31.63,31.63,0,0,1-.28,4l-4.74-2.28.15.83,4.52,1.94a29.5,29.5,0,0,1-2.21,7.8c-.8.11-1.58.24-2.34.38h0l0-4.65h0A2.29,2.29,0,0,0,29,24.78v-3l.13-.19v-.12a4.79,4.79,0,0,0-2.84-.82h0v.13h0v0h0V20.7h0a4.74,4.74,0,0,0-2.86.85v.09l.14.19v.48h0v2.48a2.29,2.29,0,0,0-.72,1.62v0l0,6.35h0l-1.32.41v-6H20.19V25.82H15v1.34h-1.1v9.05l-1.16.58V35.42L11,30.53,9.18,35.42v1.39A27.45,27.45,0,0,1,5.75,31.4,29.48,29.48,0,0,1,3.23,23,11.45,11.45,0,0,1,9,21.45a26.49,26.49,0,0,1,8.46,1.88A65.84,65.84,0,0,0,7.12,19.57l-4,2.48a33,33,0,0,1-.23-3.67V4.62a63.28,63.28,0,0,1,31.79.1Z"/>

	<!--Tower Building shape -->
	<polygon class="cls-2" points="26.24 20.81 26.24 20.81 26.24 20.83 26.24 20.83 26.24 20.83 26.24 20.81 26.24 20.77 26.24 20.7 26.24 20.77 26.24 20.81"/>

	<!--  golden roof -->
	<path class="cls-2" d="M29.1,21.51,26.25,5.42l-2.87,16.1h0a4.8,4.8,0,0,1,2.85-.84h0A4.79,4.79,0,0,1,29.1,21.51Z"/>


</svg>